# xmcd
#
# Track frame offsets:
#	150
#	15434
#	28655
#	48021
#	65163
#	81393
#	99524
#	116932
#	136264
#	151965
#
# Disc length: 2244 seconds
# Revision: 0
# Processed by: cddbd v1.5.2PL0 Copyright (c) Steve Scherf et al.
# Submitted via: dBpowerAMP V12.0
#
DISCID=7e08c20a
DTITLE=Ève Cournoyer - La Tèmpete
DYEAR=2010
DGENRE=Québécois
TTITLE0=Pour survivre
TTITLE1=Taxi
TTITLE2=Je parie
TTITLE3=Sept-Îles
TTITLE4=Hanna
TTITLE5=On a perdu
TTITLE6=Sans s'en faire
TTITLE7=En Avant
TTITLE8=Ayoye
TTITLE9=Tempête
EXTD=
EXTT0=
EXTT1=
EXTT2=
EXTT3=
EXTT4=
EXTT5=
EXTT6=
EXTT7=
EXTT8=
EXTT9=
PLAYORDER=
